<svg width="100%" height="100%" viewBox="0 0 138 70" fill="none" xmlns="http://www.w3.org/2000/svg">
<path d="M6.74561 36.9702V50H4.04297V18.0078H14.9414C18.2666 18.0078 20.8887 18.8574 22.8076 20.5566C24.7412 22.2559 25.708 24.5923 25.708 27.5659C25.708 30.5688 24.7778 32.8906 22.9175 34.5312C21.0718 36.1572 18.3911 36.9702 14.8755 36.9702H6.74561ZM6.74561 34.6851H14.9414C17.5635 34.6851 19.563 34.0625 20.9399 32.8174C22.3169 31.5723 23.0054 29.8364 23.0054 27.6099C23.0054 25.3979 22.3169 23.6401 20.9399 22.3364C19.5776 21.0181 17.6367 20.3442 15.1172 20.3149H6.74561V34.6851ZM42.9311 36.9922H32.4062V34.7729H42.9311V36.9922Z" fill="#222222"/>
<path d="M64.4827 47.583C62.9153 49.4873 60.7474 50.4395 57.9788 50.4395C55.43 50.4395 53.4817 49.707 52.1341 48.2422C50.8011 46.7773 50.1199 44.6313 50.0906 41.8042V26.2256H56.4407V41.5845C56.4407 44.0601 57.5687 45.2979 59.8245 45.2979C61.9778 45.2979 63.4573 44.5508 64.263 43.0566V26.2256H70.6351V50H64.6585L64.4827 47.583ZM92.3845 32.1802C91.5202 32.063 90.7585 32.0044 90.0993 32.0044C87.697 32.0044 86.1223 32.8174 85.3752 34.4434V50H79.0251V26.2256H85.0236L85.1994 29.0601C86.4738 26.8774 88.239 25.7861 90.4948 25.7861C91.198 25.7861 91.8571 25.8813 92.4724 26.0718L92.3845 32.1802ZM109.564 50.4395C106.077 50.4395 103.235 49.3701 101.038 47.2314C98.8556 45.0928 97.7643 42.2437 97.7643 38.6841V38.0688C97.7643 35.6812 98.2257 33.5498 99.1485 31.6748C100.071 29.7852 101.375 28.335 103.06 27.3242C104.759 26.2988 106.692 25.7861 108.86 25.7861C112.112 25.7861 114.669 26.8115 116.529 28.8623C118.404 30.9131 119.341 33.8208 119.341 37.5854V40.1782H104.202C104.407 41.731 105.023 42.9761 106.048 43.9136C107.088 44.8511 108.399 45.3198 109.981 45.3198C112.427 45.3198 114.339 44.4336 115.716 42.6611L118.836 46.1548C117.884 47.5024 116.595 48.5571 114.969 49.3188C113.343 50.0659 111.541 50.4395 109.564 50.4395ZM108.838 30.9277C107.579 30.9277 106.553 31.3525 105.762 32.2021C104.986 33.0518 104.488 34.2676 104.268 35.8496H113.101V35.3442C113.072 33.938 112.691 32.854 111.959 32.0923C111.226 31.3159 110.186 30.9277 108.838 30.9277ZM126.896 46.8799C126.896 45.8691 127.233 45.0488 127.907 44.4189C128.596 43.7891 129.453 43.4741 130.478 43.4741C131.518 43.4741 132.375 43.7891 133.049 44.4189C133.737 45.0488 134.082 45.8691 134.082 46.8799C134.082 47.876 133.745 48.689 133.071 49.3188C132.397 49.9341 131.533 50.2417 130.478 50.2417C129.438 50.2417 128.581 49.9341 127.907 49.3188C127.233 48.689 126.896 47.876 126.896 46.8799Z" fill="black"/>
</svg>
